<?xml version="1.0" encoding="UTF-8" standalone="no"?>
<!-- Created with Inkscape (http://www.inkscape.org/) -->

<svg
   width="50"
   height="50"
   viewBox="0 0 13.229166 13.229166"
   version="1.1"
   id="svg5"
   sodipodi:docname="zrepairs-icon.svg"
   inkscape:version="1.1 (c68e22c387, 2021-05-23)"
   xmlns:inkscape="http://www.inkscape.org/namespaces/inkscape"
   xmlns:sodipodi="http://sodipodi.sourceforge.net/DTD/sodipodi-0.dtd"
   xmlns:xlink="http://www.w3.org/1999/xlink"
   xmlns="http://www.w3.org/2000/svg"
   xmlns:svg="http://www.w3.org/2000/svg">
  <sodipodi:namedview
     id="namedview7"
     pagecolor="#ffffff"
     bordercolor="#666666"
     borderopacity="1.0"
     inkscape:pageshadow="2"
     inkscape:pageopacity="0.0"
     inkscape:pagecheckerboard="0"
     inkscape:document-units="px"
     showgrid="false"
     units="px"
     showguides="true"
     inkscape:guide-bbox="true"
     inkscape:snap-smooth-nodes="true"
     inkscape:object-paths="true"
     inkscape:snap-page="true"
     inkscape:zoom="5.6568543"
     inkscape:cx="41.630911"
     inkscape:cy="38.006989"
     inkscape:window-width="2560"
     inkscape:window-height="1011"
     inkscape:window-x="0"
     inkscape:window-y="32"
     inkscape:window-maximized="1"
     inkscape:current-layer="layer1" />
  <defs
     id="defs2">
    <linearGradient
       inkscape:collect="always"
       id="linearGradient34044">
      <stop
         style="stop-color:#e95420;stop-opacity:1"
         offset="0"
         id="stop34040" />
      <stop
         style="stop-color:#77216f;stop-opacity:1"
         offset="1"
         id="stop34042" />
    </linearGradient>
    <linearGradient
       inkscape:collect="always"
       id="linearGradient26647">
      <stop
         style="stop-color:#a4c639;stop-opacity:1"
         offset="0"
         id="stop26643" />
      <stop
         style="stop-color:#3ddc84;stop-opacity:1"
         offset="1"
         id="stop26645" />
    </linearGradient>
    <linearGradient
       inkscape:collect="always"
       id="linearGradient26137">
      <stop
         style="stop-color:#42a1ec;stop-opacity:1"
         offset="0"
         id="stop26133" />
      <stop
         style="stop-color:#0070c9;stop-opacity:1"
         offset="1"
         id="stop26135" />
    </linearGradient>
    <linearGradient
       inkscape:collect="always"
       id="linearGradient24507">
      <stop
         style="stop-color:#000000;stop-opacity:1;"
         offset="0"
         id="stop24503" />
      <stop
         style="stop-color:#000000;stop-opacity:0;"
         offset="1"
         id="stop24505" />
    </linearGradient>
    <linearGradient
       inkscape:collect="always"
       xlink:href="#linearGradient24507"
       id="linearGradient24509"
       x1="15.710238"
       y1="24.093037"
       x2="31.528053"
       y2="39.910851"
       gradientUnits="userSpaceOnUse"
       gradientTransform="matrix(0.26458332,0,0,0.26458332,-0.00405093,-1.8138302)" />
    <linearGradient
       inkscape:collect="always"
       xlink:href="#linearGradient26137"
       id="linearGradient26139"
       x1="-14.28125"
       y1="7.8529778"
       x2="3.7187498"
       y2="25.852978"
       gradientUnits="userSpaceOnUse"
       gradientTransform="matrix(0.26458333,0,0,0.26458333,2.1454512,0.66145879)" />
    <linearGradient
       inkscape:collect="always"
       xlink:href="#linearGradient26647"
       id="linearGradient26649"
       x1="3.5195043"
       y1="2.9104154"
       x2="8.2820082"
       y2="7.6729198"
       gradientUnits="userSpaceOnUse" />
    <linearGradient
       inkscape:collect="always"
       xlink:href="#linearGradient34044"
       id="linearGradient33752"
       gradientUnits="userSpaceOnUse"
       gradientTransform="matrix(0.26458333,0,0,0.25065639,2.1454512,0.90520885)"
       x1="-14.28125"
       y1="7.9998393"
       x2="3.7187402"
       y2="26.999943" />
  </defs>
  <g
     inkscape:label="Layer 1"
     inkscape:groupmode="layer"
     id="layer1">
    <text
       xml:space="preserve"
       style="font-style:normal;font-variant:normal;font-weight:normal;font-stretch:normal;font-size:6.08542px;line-height:1.25;font-family:Anton;-inkscape-font-specification:Anton;fill:#ffffff;stroke-width:0.264583"
       x="3.4286349"
       y="7.7465549"
       id="text212219"><tspan
         sodipodi:role="line"
         id="tspan212217"
         style="font-style:normal;font-variant:normal;font-weight:normal;font-stretch:normal;font-family:Anton;-inkscape-font-specification:Anton;fill:#ffffff;stroke-width:0.264583"
         x="3.4286349"
         y="7.7465549" /></text>
    <g
       id="g22213"
       transform="translate(2.12054,1.8136477)" />
    <g
       aria-label="Z"
       id="text19423"
       style="font-size:6.35px;line-height:1.25;font-family:Heebo;-inkscape-font-specification:Heebo;fill:#ffffff;stroke-width:0.264583"
       transform="translate(2.1166665,1.7671514)" />
    <g
       id="g38208"
       transform="translate(1.1879825,0.46350695)">
      <g
         id="g33750"
         transform="translate(13.930803,1.1300506)">
        <g
           id="g35121">
          <g
             id="g35224"
             transform="rotate(-30,-4.7990506,23.03262)">
            <path
               id="path33746"
               style="opacity:1;fill:#241f31;fill-opacity:1;stroke-width:0.311813"
               d="m -1.2772724,-0.01751463 h 3.9687499 c 0.183224,0 0.3485885,0.0737526 0.4681471,0.19331119 0.1195586,0.11955859 0.1933112,0.28492317 0.1933112,0.46814712 V 9.9043601 c 0,0.1832239 -0.073753,0.3485889 -0.1933112,0.4681469 -0.1195586,0.119559 -0.2849231,0.193311 -0.4681471,0.193311 h -3.9687499 c -0.183224,0 -0.3485885,-0.07375 -0.4681471,-0.193311 -0.1195586,-0.119558 -0.1933112,-0.284923 -0.1933112,-0.4681469 V 0.64394368 c 0,-0.18322395 0.073753,-0.34858853 0.1933112,-0.46814712 0.1195586,-0.11955859 0.2849231,-0.19331119 0.4681471,-0.19331119 z"
               sodipodi:nodetypes="sssssssssccss" />
            <path
               style="color:#000000;fill:url(#linearGradient33752);fill-opacity:1;stroke-width:0.280632;-inkscape-stroke:none"
               d="m -1.0207638,0.52922435 c -0.3405474,0.00812 -0.6123657,0.2706608 -0.6123657,0.59530895 v 8.3343248 c 0,0.3298004 0.2802599,0.5953079 0.6283854,0.5953079 h 3.505729 c 0.3481255,0 0.6283854,-0.2655075 0.6283854,-0.5953079 V 1.1245333 c 0,-0.32980125 -0.2802599,-0.59530895 -0.6283854,-0.59530895 H 2.0431318 -0.54637408 -1.0047441 c -0.00544,0 -0.010615,-1.29e-4 -0.01602,0 z"
               id="path33748"
               sodipodi:nodetypes="ssssssssccss" />
          </g>
        </g>
      </g>
      <g
         id="g33744"
         transform="rotate(-15,6.8760335,-16.362138)">
        <path
           id="rect10767"
           style="opacity:1;fill:#241f31;fill-opacity:1;stroke-width:0.311813"
           d="M -1.2360324,4.7418089e-7 H 2.7327175 C 2.9159415,4.7418089e-7 3.081306,0.07375308 3.2008646,0.19331167 3.3204232,0.31287026 3.3941758,0.47823484 3.3941758,0.66145879 V 9.9218752 c 0,0.1832238 -0.073753,0.3485888 -0.1933112,0.4681468 -0.1195586,0.119559 -0.2849231,0.193311 -0.4681471,0.193311 h -3.9687499 c -0.183224,0 -0.3485885,-0.07375 -0.4681471,-0.193311 -0.1195586,-0.119558 -0.1933112,-0.284923 -0.1933112,-0.4681468 V 0.66145879 c 0,-0.18322395 0.073753,-0.34858853 0.1933112,-0.46814712 C -1.5846209,0.07375308 -1.4192564,4.7418089e-7 -1.2360324,4.7418089e-7 Z"
           sodipodi:nodetypes="sssssssssssss" />
        <path
           style="color:#000000;fill:url(#linearGradient26139);fill-opacity:1;stroke-width:0.288322;-inkscape-stroke:none"
           d="m -1.0207638,0.2645838 c -0.3405474,0.00857 -0.6123657,0.28569934 -0.6123657,0.62838541 V 9.6903649 c 0,0.3481251 0.2802599,0.6283851 0.6283854,0.6283851 H 2.500985 c 0.3481255,0 0.6283854,-0.28026 0.6283854,-0.6283851 V 0.89296921 C 3.1293704,0.54484368 2.8491105,0.2645838 2.500985,0.2645838 H 2.0431318 v 0.17776692 c 0,0.1494448 -0.1203061,0.26975098 -0.2697509,0.26975098 h -2.05000406 c -0.14944479,0 -0.26975091,-0.12030618 -0.26975091,-0.26975098 V 0.2645838 H -1.0047441 c -0.00544,0 -0.010615,-1.3602e-4 -0.01602,0 z"
           id="rect10627" />
      </g>
      <g
         id="g33740"
         transform="translate(2.1166665,-0.4610372)">
        <path
           style="color:#000000;fill:#241f31;fill-opacity:1;stroke-width:0.303497;-inkscape-stroke:none"
           d="m 4.055634,4.7418089e-7 h 3.6902404 c 0.183224,0 0.3485885,0.0737525958191 0.4681471,0.19331117581911 0.1195586,0.11955858 0.1933112,0.28492314 0.1933112,0.46814708 V 9.9218743 c 0,0.1832237 -0.073753,0.3485887 -0.1933112,0.4681477 -0.1195586,0.119558 -0.2849232,0.193311 -0.4681471,0.193311 H 4.055634 c -0.1832239,0 -0.3485885,-0.07375 -0.4681471,-0.193311 C 3.4679284,10.270463 3.3941758,10.105098 3.3941758,9.9218743 V 0.66145873 c 0,-0.18322394 0.073753,-0.3485885 0.1933111,-0.46814708 C 3.7070455,0.07375307 3.8724101,4.7418089e-7 4.055634,4.7418089e-7 Z"
           id="rect10647"
           sodipodi:nodetypes="sssssssssssss"
           transform="translate(0.00387353,1.8136477)" />
        <path
           style="color:#000000;fill:url(#linearGradient26649);fill-opacity:1;stroke-width:0.288322;-inkscape-stroke:none"
           d="m 4.1478897,0.26458314 h 3.505729 c 0.3481255,0 0.6283854,0.2802599 0.6283854,0.62838543 V 9.6903645 c 0,0.3481255 -0.2802599,0.6283855 -0.6283854,0.6283855 h -3.505729 c -0.3481255,0 -0.6283854,-0.28026 -0.6283854,-0.6283855 V 0.89296857 c 0,-0.34812553 0.2802599,-0.62838543 0.6283854,-0.62838543 z"
           id="rect9201"
           transform="translate(0.00387353,1.8136477)" />
        <path
           id="rect24445"
           style="opacity:0.2;fill:url(#linearGradient24509);fill-opacity:1;stroke-width:0.288322"
           d="M 7.5138359,2.9879438 4.2086116,7.5023967 7.0249769,10.318762 h 0.6283854 c 0.3481255,0 0.6283854,-0.280259 0.6283854,-0.6283854 V 3.7558554 Z"
           transform="translate(0.00387353,1.8136477)" />
        <path
           d="M 7.5890232,7.548893 H 4.4512302 V 6.9070717 h 3.137793 z m -2.8370361,0 H 4.2124851 V 7.0434975 L 6.9906101,3.0344399 H 7.5177097 V 3.5274331 Z M 7.223154,3.6793618 H 4.227988 V 3.0344399 h 2.995166 z"
           style="font-weight:500;font-size:6.35px;line-height:1.25;font-family:Heebo;-inkscape-font-specification:'Heebo, Medium';fill:#ffffff;stroke-width:0.264583"
           id="path23511"
           transform="translate(0,1.7671514)" />
        <rect
           style="fill:#241f31;fill-opacity:1;stroke:none;stroke-width:0.162946;stroke-miterlimit:4;stroke-dasharray:none"
           id="rect25091"
           width="0.85804564"
           height="0.36982566"
           x="7.0474916"
           y="2.2601318"
           ry="0.16613159" />
      </g>
    </g>
  </g>
</svg>
